Coordinates
version=1
nRows=8
nColumns=36
inDegrees=yes

Units are S.I. units (second, meters, Newtons, ...)
If the header above contains a line with 'inDegrees', this indicates whether rotational values are in degrees (yes) or radians (no).

endheader
time	pelvis_tilt	pelvis_list	pelvis_rotation	pelvis_tx	pelvis_ty	pelvis_tz	hip_flexion_r	hip_adduction_r	hip_rotation_r	knee_angle_r	knee_angle_r_beta	ankle_angle_r	subtalar_angle_r	mtp_angle_r	hip_flexion_l	hip_adduction_l	hip_rotation_l	knee_angle_l	knee_angle_l_beta	ankle_angle_l	subtalar_angle_l	mtp_angle_l	lumbar_extension	lumbar_bending	lumbar_rotation	arm_flex_r	arm_add_r	arm_rot_r	elbow_flex_r	pro_sup_r	arm_flex_l	arm_add_l	arm_rot_l	elbow_flex_l	pro_sup_l
      3.56000000	      3.03045581	     -0.34117618	      2.93271507	     -0.53679792	      0.57422916	     -0.68612405	     83.95883677	    -18.61907552	      6.51847073	    103.65525713	      1.80912552	     24.75489742	      0.78603621	     -7.49999987	     84.70699746	    -11.48894996	      4.07731404	    101.97914380	      1.77987183	     22.41257348	      0.59285602	     -7.49999987	    -26.91636373	     -0.69151945	     -2.03253408	     28.17832900	    -12.16011907	      8.53740359	    116.63896467	     95.46401500	     35.29118037	    -10.59175394	     11.82591342	    115.58565431	    105.64227767
      3.57000000	      2.80566860	     -0.32255541	      2.86052507	     -0.53648220	      0.57422146	     -0.68602777	     84.19926184	    -18.59406544	      6.51152051	    103.64154133	      1.80888614	     24.68832295	      0.75433393	     -7.49999987	     84.88628960	    -11.56505633	      4.02093722	    101.96468427	      1.77961946	     22.38619592	      0.48228793	     -7.49999987	    -27.05402999	     -0.70667769	     -1.90185228	     28.41200718	    -12.30839602	      8.38021976	    116.62641184	     96.24449416	     35.65290040	    -10.44494833	     11.83118588	    115.29279741	    107.18153654
      3.58000000	      2.59343676	     -0.33465538	      2.75261518	     -0.53609683	      0.57421534	     -0.68566387	     84.40262902	    -18.49523973	      6.49121791	    103.65057251	      1.80904376	     24.93225975	      1.03254096	     -7.49999987	     85.05764417	    -11.73135303	      4.01553253	    101.96647776	      1.77965076	     22.67638849	      0.73092528	     -7.49999987	    -27.23922426	     -0.69193753	     -1.78842637	     28.75705721	    -12.37742741	      8.41313415	    116.72073590	     95.51067721	     35.98243718	    -10.40717690	     11.98804280	    115.39269886	    105.96135009
      3.59000000	      2.35510561	     -0.35980539	      2.64189195	     -0.53572047	      0.57423051	     -0.68536201	     84.61060867	    -18.38243627	      6.43365807	    103.60959845	      1.80832863	     24.92302242	      1.01053065	     -7.49999987	     85.25630421	    -11.87868889	      4.03035751	    101.95910671	      1.77952211	     22.78341159	      0.84956816	     -7.49999987	    -27.43259432	     -0.65144923	     -1.67207578	     29.18329836	    -12.44005406	      8.34844828	    116.54787795	     96.82995702	     36.42048285	    -10.40646773	     11.98228930	    115.21138368	    106.76714042
      3.60000000	      2.08566865	     -0.32283816	      2.59710391	     -0.53517081	      0.57412624	     -0.68540618	     84.88223811	    -18.41736498	      6.45301725	    103.61010414	      1.80833746	     25.10616902	      1.21495314	     -7.49999987	     85.47939537	    -11.91598391	      3.96764661	    101.97976195	      1.77988262	     22.92723577	      0.88691363	     -7.49999987	    -27.63462237	     -0.62964027	     -1.66763982	     29.67249749	    -12.54046408	      8.40361224	    116.51256421	     96.37815534	     36.85401166	    -10.43913086	     12.09981887	    115.25113555	    105.93689114
      3.61000000	      1.69811937	     -0.32235258	      2.61510297	     -0.53455414	      0.57386572	     -0.68554691	     85.26607081	    -18.50454862	      6.39195096	    103.59964971	      1.80815499	     24.90512117	      0.67315841	     -7.49999987	     85.83060134	    -11.82331700	      3.98527853	    101.95444515	      1.77944075	     22.73967927	      0.41328641	     -7.49999987	    -27.75482747	     -0.54528075	     -1.66386176	     30.13330129	    -12.60706378	      8.44039823	    116.59608984	     94.80791502	     37.24938531	    -10.30061195	     12.28922656	    115.56053448	    103.57005199
      3.62000000	      1.30982160	     -0.30096895	      2.60581004	     -0.53394470	      0.57353279	     -0.68547542	     85.68573657	    -18.59149685	      6.34228750	    103.62152957	      1.80853687	     24.75595008	      0.30253398	     -7.49999987	     86.19023761	    -11.84210626	      3.91110770	    101.93373913	      1.77907937	     22.64825715	      0.05501477	     -7.49999987	    -27.92805762	     -0.48411016	     -1.67189785	     30.70244235	    -12.78599753	      8.55623480	    116.77543062	     93.24619882	     37.79847816	    -10.46045120	     12.54062462	    115.80714457	    101.12128647
      3.63000000	      0.86804566	     -0.31444085	      2.58251650	     -0.53339373	      0.57316691	     -0.68535993	     86.13168879	    -18.58562386	      6.30494258	    103.59425145	      1.80806077	     24.49963702	     -0.19557148	     -7.49999987	     86.62234527	    -11.82719148	      3.91626283	    101.92309874	      1.77889366	     22.45162171	     -0.44905183	     -7.49999987	    -28.08825193	     -0.40451626	     -1.63019423	     31.38744262	    -12.88383829	      8.71724283	    116.84896025	     90.87468691	     38.44998275	    -10.39710980	     12.83977901	    116.03356969	     98.05836602
